name Walk4.mot
datacolumns 19
datarows 25
range 3.40000000 3.52000000
endheader

                time	   L_ground_force_vx	   L_ground_force_vy	   L_ground_force_vz	   L_ground_force_px	   L_ground_force_py	   L_ground_force_pz	   R_ground_force_vx	   R_ground_force_vy	   R_ground_force_vz	   R_ground_force_px	   R_ground_force_py	   R_ground_force_pz	   L_ground_torque_x	   L_ground_torque_y	   L_ground_torque_z	   R_ground_torque_x	   R_ground_torque_y	   R_ground_torque_z	
          3.40000000	         -7.15548181	         98.59753193	         -6.85236885	          0.00496307	          0.00000000	         -0.00401586	         -0.00000000	          0.00000000	          0.00000000	          0.00000000	          0.00000000	          0.00000000	          0.00000000	          0.22478238	          0.00000000	          0.00000000	          0.00000000	          0.00000000	
          3.40500000	        -12.90318081	        149.75797618	        -10.77269687	         -0.06844259	          0.00000000	         -0.01040415	         -0.00000000	          0.00000000	          0.00000000	          0.00000000	          0.00000000	          0.00000000	          0.00000000	          0.33589422	          0.00000000	          0.00000000	          0.00000000	          0.00000000	
          3.41000000	        -20.42095202	        208.69852126	        -14.59353374	         -0.13651465	          0.00000000	         -0.01651302	         -0.00000000	          0.00000000	         -0.00000000	          0.00000000	          0.00000000	         -0.00000000	          0.00000000	          0.47542722	          0.00000000	          0.00000000	          0.00000000	          0.00000000	
          3.41500000	        -29.73530396	        273.10850788	        -18.00474005	         -0.19561374	          0.00000000	         -0.02198406	         -0.00000000	          0.00000000	         -0.00000000	         -0.00000000	          0.00000000	         -0.00000000	          0.00000000	          0.64050576	          0.00000000	          0.00000000	          0.00000000	          0.00000000	
          3.42000000	        -40.61801495	        339.77203869	        -20.73997030	         -0.24406259	          0.00000000	         -0.02662281	         -0.00000000	         -0.00000000	         -0.00000000	         -0.00000000	          0.00000000	         -0.00000000	          0.00000000	          0.82376130	          0.00000000	          0.00000000	          0.00000000	          0.00000000	
          3.42500000	        -52.50315657	        405.58860691	        -22.60665912	         -0.28163505	          0.00000000	         -0.03037564	         -0.00000000	         -0.00000001	         -0.00000000	         -0.00000000	          0.00000000	         -0.00000000	          0.00000000	          1.01483351	          0.00000000	          0.00000000	          0.00000000	          0.00000000	
          3.43000000	        -64.60208039	        468.26704285	        -23.45940931	         -0.30904985	          0.00000000	         -0.03328234	         -0.00000000	         -0.00000001	         -0.00000000	         -0.00000000	          0.00000000	         -0.00000000	          0.00000000	          1.20331288	          0.00000000	          0.00000000	          0.00000000	          0.00000000	
          3.43500000	        -76.17658416	        526.35247393	        -23.21296790	         -0.32756721	          0.00000000	         -0.03543671	         -0.00000000	         -0.00000002	         -0.00000000	         -0.00000000	          0.00000000	         -0.00000000	          0.00000000	          1.38093796	          0.00000000	          0.00000000	          0.00000000	          0.00000000	
          3.44000000	        -86.77910561	        579.09585419	        -21.88216158	         -0.33868948	          0.00000000	         -0.03695532	          0.00000000	         -0.00000003	         -0.00000000	         -0.00000000	          0.00000000	         -0.00000000	          0.00000000	          1.54331354	          0.00000000	          0.00000000	         -0.00000000	          0.00000000	
          3.44500000	        -96.31292916	        626.27485434	        -19.57837616	         -0.34395616	          0.00000000	         -0.03795727	          0.00000000	         -0.00000004	         -0.00000000	         -0.00000000	          0.00000000	         -0.00000000	          0.00000000	          1.69021643	          0.00000000	          0.00000000	         -0.00000000	          0.00000000	
          3.45000000	       -104.88444747	        667.97363392	        -16.48350502	         -0.34481722	          0.00000000	         -0.03855404	          0.00000000	         -0.00000005	         -0.00000000	         -0.00000000	          0.00000000	         -0.00000000	          0.00000000	          1.82523062	          0.00000000	          0.00000000	         -0.00000000	          0.00000000	
          3.45500000	       -112.60016186	        704.47694336	        -12.82482369	         -0.34255931	          0.00000000	         -0.03884518	          0.00000000	         -0.00000007	         -0.00000000	         -0.00000000	          0.00000000	         -0.00000000	          0.00000000	          1.95531422	          0.00000000	          0.00000000	         -0.00000000	          0.00000000	
          3.46000000	       -119.48525947	        736.24863633	         -8.80747434	         -0.33826801	          0.00000000	         -0.03891708	          0.00000001	         -0.00000008	         -0.00000000	         -0.00000000	          0.00000000	         -0.00000000	          0.00000000	          2.08900777	          0.00000000	          0.00000000	         -0.00000000	          0.00000000	
          3.46500000	       -125.52161310	        763.85563053	         -4.55995713	         -0.33281853	          0.00000000	         -0.03884295	          0.00000001	         -0.00000009	         -0.00000000	         -0.00000000	          0.00000000	         -0.00000000	          0.00000000	          2.23309434	          0.00000000	          0.00000000	         -0.00000000	          0.00000000	
          3.47000000	       -130.68905989	        787.84674769	         -0.13591959	         -0.32688395	          0.00000000	         -0.03868558	          0.00000001	         -0.00000010	         -0.00000000	         -0.00000000	          0.00000000	         -0.00000000	          0.00000000	          2.39014082	          0.00000000	          0.00000000	         -0.00000000	          0.00000000	
          3.47500000	       -134.96320907	        808.67372289	          4.47388336	         -0.32095520	          0.00000000	         -0.03849915	          0.00000001	         -0.00000009	         -0.00000000	         -0.00000000	          0.00000000	         -0.00000000	          0.00000000	          2.55777924	          0.00000000	          0.00000000	         -0.00000000	          0.00000000	
          3.48000000	       -138.30652270	        826.69649506	          9.30913733	         -0.31536773	          0.00000000	         -0.03832784	          0.00000002	         -0.00000007	          0.00000000	         -0.00000000	          0.00000000	          0.00000000	          0.00000000	          2.73126917	          0.00000000	          0.00000000	         -0.00000000	          0.00000000	
          3.48500000	       -140.67796615	        842.21441552	         14.39209821	         -0.31033012	          0.00000000	         -0.03820261	          0.00000002	         -0.00000004	          0.00000001	          0.00000000	          0.00000000	          0.00000000	          0.00000000	          2.90650625	          0.00000000	          0.00000000	         -0.00000000	          0.00000000	
          3.49000000	       -142.05455944	        855.48936962	         19.69869271	         -0.30595122	          0.00000000	         -0.03814052	          0.00000002	          0.00000002	          0.00000001	          0.00000000	          0.00000000	          0.00000000	          0.00000000	          3.08145876	          0.00000000	          0.00000000	         -0.00000000	          0.00000000	
          3.49500000	       -142.44562207	        866.75899416	         25.16203261	         -0.30226423	          0.00000000	         -0.03814577	          0.00000002	          0.00000012	          0.00000002	          0.00000000	          0.00000000	          0.00000000	          0.00000000	          3.25490080	          0.00000000	          0.00000000	         -0.00000000	          0.00000000	
          3.50000000	       -141.89038338	        876.23746993	         30.69635543	         -0.29924781	          0.00000000	         -0.03821454	          0.00000002	          0.00000025	          0.00000003	          0.00000000	          0.00000000	          0.00000000	          0.00000000	          3.42442970	          0.00000000	          0.00000000	         -0.00000000	          0.00000000	
          3.50500000	       -140.44936459	        884.11496301	         36.21294078	         -0.29684421	          0.00000000	         -0.03833818	          0.00000001	          0.00000042	          0.00000004	          0.00000000	          0.00000000	          0.00000000	          0.00000000	          3.58601973	          0.00000000	          0.00000000	         -0.00000000	          0.00000000	
          3.51000000	       -138.19905873	        890.55319990	         41.62111350	         -0.29497405	          0.00000000	         -0.03850414	         -0.00000000	          0.00000064	          0.00000006	          0.00000000	          0.00000000	          0.00000000	          0.00000000	          3.73573602	          0.00000000	          0.00000000	          0.00000000	          0.00000000	
          3.51500000	       -135.22860253	        895.67935593	         46.82964390	         -0.29354827	          0.00000000	         -0.03869733	         -0.00000002	          0.00000090	          0.00000007	          0.00000000	          0.00000000	          0.00000000	          0.00000000	          3.87074030	          0.00000000	          0.00000000	          0.00000001	          0.00000000	
          3.52000000	       -131.64024255	        899.59055720	         51.75387014	         -0.29247614	          0.00000000	         -0.03890388	         -0.00000004	          0.00000119	          0.00000008	          0.00000000	          0.00000000	          0.00000000	          0.00000000	          3.98844576	          0.00000000	          0.00000000	          0.00000001	          0.00000000	
